<?xml version="1.0" standalone="no"?>
<!DOCTYPE svg PUBLIC "-//W3C//DTD SVG 20010904//EN"
 "http://www.w3.org/TR/2001/REC-SVG-20010904/DTD/svg10.dtd">
<svg version="1.0" xmlns="http://www.w3.org/2000/svg"
 width="512.000000pt" height="512.000000pt" viewBox="0 0 512.000000 512.000000"
 preserveAspectRatio="xMidYMid meet">

<g transform="translate(0.000000,512.000000) scale(0.100000,-0.100000)"
fill="#000000" stroke="none">
<path d="M2320 4873 c-188 -19 -441 -77 -595 -136 -300 -115 -545 -278 -776
-513 -323 -332 -505 -702 -591 -1204 -32 -181 -32 -539 0 -720 67 -392 215
-729 441 -1010 71 -88 250 -269 338 -342 244 -200 578 -362 880 -426 l92 -20
21 23 22 23 -44 7 c-238 38 -541 158 -758 302 -146 97 -237 172 -366 304 -323
332 -513 721 -580 1184 -21 144 -24 467 -5 595 53 371 163 677 339 945 281
430 718 742 1217 870 226 58 330 70 605 70 275 -1 401 -17 620 -80 770 -223
1356 -882 1488 -1677 l17 -100 24 20 25 19 -28 139 c-168 844 -843 1522 -1681
1688 -71 14 -170 30 -220 36 -84 9 -406 11 -485 3z"/>
<path d="M2349 4450 c-482 -57 -924 -310 -1215 -697 -185 -246 -307 -543 -344
-838 -29 -229 15 -702 65 -702 8 0 13 3 10 5 -3 3 0 11 6 19 9 10 15 11 26 1
11 -9 13 -8 11 3 -2 8 3 13 10 11 6 -1 11 3 10 10 -2 6 7 17 19 23 13 7 20 16
15 21 -4 4 1 2 11 -6 16 -11 18 -11 15 1 -2 8 3 13 12 11 8 -2 12 0 8 4 -4 4
-3 13 3 21 9 10 15 11 26 1 11 -9 13 -8 11 3 -2 8 3 13 12 11 8 -2 12 0 8 4
-4 4 -3 13 3 21 9 10 15 10 25 2 10 -8 12 -6 9 11 -4 18 -2 20 11 9 12 -10 15
-10 12 2 -2 8 3 13 12 11 8 -2 12 0 8 4 -4 4 -3 13 3 21 9 10 15 11 26 1 11
-9 13 -8 11 3 -2 8 3 13 10 11 8 -1 11 2 8 7 -3 5 2 15 11 22 14 12 16 12 8
-1 -6 -11 -5 -12 3 -5 8 7 12 112 14 327 3 302 4 318 24 344 11 15 33 37 48
48 26 20 44 21 364 26 l337 5 307 375 c169 206 322 387 339 402 17 14 46 29
65 33 69 12 101 -3 236 -112 133 -108 170 -128 163 -91 -4 17 -2 18 11 7 12
-10 15 -10 12 1 -2 7 7 19 19 25 13 7 20 16 15 21 -4 4 1 2 11 -6 16 -11 18
-11 15 1 -2 8 3 13 12 11 8 -2 12 0 8 4 -4 4 -3 13 3 21 9 10 15 10 25 2 10
-8 12 -6 9 11 -4 18 -2 20 11 9 12 -10 15 -10 12 1 -2 7 7 19 19 25 13 7 20
16 15 21 -4 4 1 2 11 -6 16 -11 18 -11 15 1 -2 8 3 13 12 11 8 -2 12 0 8 4 -4
4 -3 13 3 21 9 10 15 10 25 2 10 -8 12 -6 9 11 -4 18 -2 20 11 9 12 -10 15
-10 12 1 -2 7 7 19 19 25 13 7 20 16 15 21 -4 4 1 2 11 -6 16 -11 18 -11 15 1
-2 8 3 13 10 11 8 -1 11 2 8 7 -3 5 2 15 11 22 9 8 14 9 10 3 -3 -6 0 -11 8
-11 8 0 13 5 12 11 -1 6 4 10 11 9 25 -6 10 9 -58 53 -218 141 -483 234 -752
263 -109 12 -299 12 -399 1z"/>
<path d="M2742 3581 c-23 -27 -35 -48 -27 -48 8 0 13 5 12 11 -1 6 4 10 11 8
8 -1 11 2 7 8 -3 5 1 10 10 10 10 0 13 5 9 13 -5 7 -2 7 10 -2 15 -12 17 -12
14 0 -2 8 2 13 8 12 15 -3 14 25 -2 31 -6 2 -30 -17 -52 -43z"/>
<path d="M1570 2810 c0 -50 4 -80 11 -80 5 0 7 6 3 13 -5 7 -2 7 10 -2 15 -12
17 -12 14 0 -2 8 3 13 12 11 8 -2 12 0 8 4 -4 4 -3 13 3 21 9 10 15 10 25 2
10 -8 12 -6 9 11 -4 18 -2 20 11 9 12 -10 15 -10 12 1 -2 7 7 19 19 25 13 7
20 16 15 21 -4 4 1 2 11 -6 16 -11 18 -11 15 1 -2 8 3 13 12 11 8 -2 12 0 8 4
-4 4 -3 13 3 21 10 11 -7 13 -95 13 l-106 0 0 -80z"/>
<path d="M4593 2665 c-40 -17 -52 -39 -59 -113 -6 -53 -4 -60 12 -65 29 -8
234 -31 238 -26 2 2 7 14 10 27 7 20 4 22 -26 22 -48 0 -62 12 -55 48 9 46 -9
88 -48 106 -39 19 -32 19 -72 1z m65 -57 c12 -12 16 -46 7 -70 -4 -9 -18 -12
-45 -10 -38 4 -40 6 -40 36 0 37 15 56 45 56 12 0 26 -5 33 -12z"/>
<path d="M4487 2303 c-4 -3 -7 -14 -7 -24 0 -13 19 -23 73 -39 109 -33 146
-81 97 -130 -25 -25 -38 -25 -134 5 -44 14 -81 24 -82 22 -1 -1 -5 -12 -8 -24
-6 -20 0 -24 74 -47 45 -14 92 -26 106 -26 73 0 128 82 104 155 -14 43 -35 58
-130 90 -81 27 -84 28 -93 18z"/>
<path d="M4231 1694 c-45 -37 -64 -84 -51 -120 24 -62 68 -69 133 -19 46 35
71 43 82 26 10 -17 -18 -61 -52 -82 -28 -17 -31 -24 -23 -40 15 -26 24 -24 69
17 65 58 75 135 22 163 -33 18 -57 13 -106 -25 -26 -19 -54 -34 -63 -32 -30 6
-25 38 12 72 31 28 34 35 23 50 -12 17 -15 16 -46 -10z"/>
<path d="M3963 1368 l-55 -53 98 -92 c93 -88 99 -92 116 -76 18 16 17 18 -13
49 l-32 33 32 36 c41 47 41 86 2 126 -46 45 -81 40 -148 -23z m108 -8 c26 -14
24 -52 -3 -78 l-23 -21 -33 27 -32 27 25 28 c28 30 37 32 66 17z"/>
<path d="M3755 1170 c-18 -19 -17 -37 2 -148 l5 -33 -77 36 c-60 27 -81 32
-96 25 -10 -6 -19 -15 -19 -20 0 -16 144 -210 156 -210 6 0 17 6 23 14 9 10 1
27 -34 75 -25 33 -45 63 -45 66 0 2 28 -9 62 -25 39 -18 66 -26 72 -20 5 5 5
36 -1 79 -5 39 -9 71 -8 71 1 0 23 -29 49 -65 26 -36 51 -65 55 -65 4 0 15 6
24 13 14 11 7 24 -64 120 -43 59 -81 107 -82 107 -2 0 -12 -9 -22 -20z"/>
<path d="M3380 930 c-12 -7 -9 -20 18 -82 36 -81 40 -119 16 -142 -21 -21 -67
-20 -87 2 -9 9 -30 48 -47 85 -31 66 -42 75 -68 58 -23 -14 60 -176 100 -197
43 -22 102 -13 139 22 42 40 40 97 -6 192 -35 74 -40 78 -65 62z"/>
<path d="M3006 782 c-15 -3 -17 -10 -12 -42 3 -21 9 -45 12 -54 4 -11 -5 -18
-38 -26 -23 -6 -50 -13 -59 -16 -13 -4 -20 7 -29 46 -10 43 -15 50 -36 50 -31
0 -30 -8 4 -145 22 -84 32 -111 46 -113 30 -6 36 11 22 65 l-14 51 59 15 59
15 10 -37 c5 -20 10 -41 10 -48 0 -17 17 -25 39 -18 18 5 17 11 -12 128 -16
67 -33 125 -36 128 -3 3 -14 4 -25 1z"/>
<path d="M2513 703 c-69 -4 -73 -5 -73 -28 0 -21 5 -24 43 -27 l42 -3 6 -103
c4 -57 8 -105 11 -107 2 -2 14 -2 26 1 21 6 21 9 15 115 l-6 109 41 0 c38 0
42 2 42 25 0 23 -4 25 -37 23 -21 -1 -71 -4 -110 -5z"/>
</g>
</svg>
